<svg width="71" height="16" viewBox="0 0 71 16" fill="none" xmlns="http://www.w3.org/2000/svg">
<path d="M14.8476 15.5H11.3276L10.3876 13.06H4.74758L3.80758 15.5H0.267578L5.86758 2.1H9.24758L14.8476 15.5ZM9.28758 10.22L7.56758 5.82L5.86758 10.22H9.28758ZM17.7579 0.679999C18.8379 0.679999 19.6179 1.52 19.6179 2.5C19.6179 3.52 18.8379 4.28 17.7579 4.28C16.6779 4.28 15.9179 3.52 15.9179 2.5C15.9179 1.52 16.6779 0.679999 17.7579 0.679999ZM19.3579 15.5H16.1579V5.46H19.3579V15.5ZM28.4977 5.32C28.7777 5.32 28.9777 5.34 29.2177 5.4L29.0777 8.6H28.4977C26.2577 8.6 25.0377 9.76 25.0377 12.36V15.5H21.8377V5.46H25.0377V7.38C25.7577 6.18 26.8577 5.32 28.4977 5.32ZM48.6366 15.5H45.1166L44.1766 13.06H38.5366L37.5966 15.5H34.0566L39.6566 2.1H43.0366L48.6366 15.5ZM43.0766 10.22L41.3566 5.82L39.6566 10.22H43.0766ZM59.0774 5.44L54.9174 15.5H51.6574L47.4974 5.44H50.8774L53.2974 11.64L55.6974 5.44H59.0774ZM70.5813 5.46V15.5H67.3813V14.7C66.6013 15.4 65.5613 15.8 64.2613 15.8C61.6013 15.8 59.3613 13.66 59.3613 10.48C59.3613 7.32 61.6013 5.16 64.2613 5.16C65.5613 5.16 66.6013 5.56 67.3813 6.26V5.46H70.5813ZM64.9213 13.08C66.2213 13.08 67.3813 12.04 67.3813 10.48C67.3813 8.94 66.2213 7.88 64.9213 7.88C63.5213 7.88 62.5013 8.94 62.5013 10.48C62.5013 12.04 63.5213 13.08 64.9213 13.08Z" fill="black"/>
</svg>
